<svg xmlns="http://www.w3.org/2000/svg" viewBox="0 0 128 128">
  <path d="M16.1 5.3C19.5 1.9 24.6 0 30 0h68c5.4 0 10.5 1.9 13.9 5.3 3.4 3.4 5.3 8.5 5.3 13.9v68c0 5.4-1.9 10.5-5.3 13.9-3.4 3.4-8.5 5.3-13.9 5.3H77.5l-13.5 21.6L50.5 106.4H30c-5.4 0-10.5-1.9-13.9-5.3C12.7 97.7 10.8 92.6 10.8 87.2v-68c0-5.4 1.9-10.5 5.3-13.9z" fill="#2b3137"/>
  <text x="34" y="68" font-family="monospace" font-size="52" font-weight="bold" fill="#d4d4d4">$_</text>
  <rect x="76" y="58" width="14" height="4" rx="2" fill="#4ec94e"/>
</svg>
